<?xml version="1.0" standalone="no"?>
<!DOCTYPE svg PUBLIC "-//W3C//DTD SVG 20010904//EN"
 "http://www.w3.org/TR/2001/REC-SVG-20010904/DTD/svg10.dtd">
<svg version="1.0" xmlns="http://www.w3.org/2000/svg"
 viewBox="0 0 213.000000 218.000000"
 preserveAspectRatio="xMidYMid meet">

<g transform="translate(0.000000,218.000000) scale(0.100000,-0.100000)"
fill="#c9606c" stroke="none">
<path d="M987 2069 c-7 -19 -22 -57 -31 -86 -20 -61 -1 -63 -190 26 -71 34
-131 59 -135 56 -3 -3 38 -49 92 -102 53 -54 100 -94 104 -89 4 4 -22 37 -60
72 -37 35 -62 64 -57 64 6 0 59 -23 118 -50 99 -47 132 -55 132 -31 0 25 42
121 51 115 5 -3 23 -31 39 -62 48 -94 41 -92 108 -33 33 28 62 48 65 44 2 -4
14 -38 26 -75 13 -38 28 -68 34 -68 7 0 55 7 107 15 52 8 96 13 97 11 2 -2
-24 -33 -57 -69 -33 -36 -57 -68 -53 -70 11 -7 157 152 149 160 -6 6 -143 -9
-213 -23 -28 -5 -29 -4 -51 63 -35 107 -33 106 -96 44 -31 -30 -59 -50 -65
-46 -6 3 -27 37 -46 73 -52 101 -51 101 -68 61z"/>
<path d="M892 1804 c-57 -15 -107 -38 -117 -54 -10 -16 9 -12 71 17 116 53
310 40 402 -27 83 -60 91 -144 37 -357 -90 -351 -76 -567 40 -623 44 -21 172
-29 160 -10 -3 5 -32 10 -63 10 -77 0 -121 23 -150 80 -23 43 -23 52 -18 200
5 153 12 195 61 380 28 105 32 204 12 253 -49 116 -258 179 -435 131z"/>
<path d="M831 1623 c-16 -61 -38 -102 -73 -135 l-30 -28 35 -16 34 -16 -34
-112 c-32 -105 -33 -113 -19 -143 15 -32 64 -64 120 -77 l28 -7 -4 -119 c-3
-100 -7 -125 -24 -147 -34 -46 -80 -64 -159 -62 -86 1 -96 0 -70 -11 39 -17
137 -11 181 11 66 32 87 74 92 186 3 51 1 108 -2 127 -6 30 -12 36 -40 42 -47
8 -95 40 -106 69 -7 19 -1 51 25 137 34 113 35 128 10 128 -25 0 -28 21 -7 43
24 25 57 97 67 145 10 51 -11 38 -24 -15z"/>
<path d="M1008 575 c-99 -37 -158 -122 -158 -224 0 -101 46 -178 135 -223 77
-40 211 -23 272 34 20 19 23 31 23 100 l0 78 -50 0 -50 0 0 -65 0 -64 -42 -11
c-105 -29 -188 37 -188 148 0 118 119 187 225 131 38 -20 39 -20 53 -3 35 48
34 52 -13 80 -56 32 -150 41 -207 19z"/>
<path d="M1485 572 c-64 -31 -80 -55 -80 -124 0 -55 3 -62 32 -89 20 -17 62
-37 109 -51 85 -24 114 -51 94 -87 -22 -42 -96 -39 -164 5 l-39 27 -28 -34
c-33 -40 -29 -48 47 -85 69 -34 165 -37 216 -7 86 50 102 148 35 209 -23 22
-60 40 -109 54 -40 12 -79 27 -85 32 -16 13 -17 50 -1 66 18 18 99 14 141 -7
l37 -19 20 28 c29 40 26 49 -26 72 -67 29 -149 33 -199 10z"/>
<path d="M390 535 l0 -45 70 0 70 0 0 -190 0 -190 50 0 50 0 0 190 0 190 65 0
65 0 0 45 0 45 -185 0 -185 0 0 -45z"/>
</g>
</svg>
