<?xml version="1.0" standalone="no"?>
<!DOCTYPE svg PUBLIC "-//W3C//DTD SVG 20010904//EN"
 "http://www.w3.org/TR/2001/REC-SVG-20010904/DTD/svg10.dtd">
<svg version="1.0" xmlns="http://www.w3.org/2000/svg"
 width="160.000000pt" height="160.000000pt" viewBox="0 0 622.000000 602.000000"
 preserveAspectRatio="xMidYMid meet">

<g transform="translate(0.000000,602.000000) scale(0.100000,-0.100000)"
fill="#c9606c" stroke="none">
<path d="M2872 5872 c-11 -10 -54 -111 -97 -232 -43 -118 -78 -216 -80 -218
-1 -1 -190 86 -421 193 -230 107 -429 195 -440 195 -20 0 -34 -17 -34 -40 0
-4 127 -130 282 -279 288 -278 306 -292 332 -248 10 16 -14 43 -184 209 -107
104 -188 187 -180 185 8 -3 160 -73 338 -156 178 -83 327 -151 332 -151 18 0
38 45 106 233 37 103 70 187 73 187 3 0 51 -85 105 -188 121 -228 142 -262
161 -262 9 0 83 64 166 143 83 78 156 142 162 142 6 0 43 -90 82 -199 39 -110
77 -203 86 -209 9 -6 110 5 297 33 156 22 289 40 296 38 8 -2 -60 -81 -150
-178 -90 -96 -164 -182 -164 -190 0 -19 19 -40 36 -40 9 0 301 306 417 437 24
27 15 63 -16 63 -12 0 -167 -21 -344 -47 -178 -25 -326 -44 -329 -40 -4 3 -40
99 -81 214 -76 213 -85 233 -110 233 -8 0 -77 -60 -154 -132 -78 -73 -151
-141 -163 -150 -22 -16 -22 -16 -151 223 -72 131 -135 241 -142 243 -7 3 -21
-3 -31 -12z"/>
<path d="M2797 5100 c-252 -32 -526 -130 -567 -203 -13 -24 -13 -28 3 -44 17
-17 20 -17 65 10 201 120 385 167 651 167 450 0 772 -182 832 -469 16 -77 5
-302 -20 -421 -11 -53 -45 -185 -76 -295 -82 -296 -102 -389 -130 -615 -55
-449 -56 -641 -4 -843 69 -271 264 -403 564 -382 107 7 191 20 263 41 51 14
52 15 52 53 l0 39 -58 -18 c-94 -29 -214 -43 -345 -38 -111 3 -128 7 -189 35
-118 55 -190 157 -225 318 -29 132 -25 471 10 755 31 249 50 341 132 635 85
304 108 426 108 580 1 92 -4 148 -16 192 -67 250 -286 417 -642 488 -95 19
-313 27 -408 15z"/>
<path d="M2425 4681 c-3 -6 -10 -36 -16 -68 -17 -97 -49 -194 -92 -283 -33
-68 -59 -102 -124 -167 -46 -46 -83 -89 -83 -97 0 -20 16 -30 100 -61 41 -15
77 -29 78 -31 2 -1 -36 -132 -84 -291 -99 -327 -103 -358 -60 -447 48 -97 149
-165 311 -206 43 -11 83 -24 88 -29 15 -15 20 -284 9 -456 -11 -174 -28 -239
-82 -313 -107 -149 -383 -198 -657 -119 l-83 24 0 -38 c0 -37 1 -39 53 -54
346 -104 668 -19 782 205 53 105 59 151 60 460 0 266 -1 288 -20 324 -19 39
-23 40 -113 62 -205 50 -302 129 -302 246 0 25 37 166 90 341 50 164 90 306
90 316 0 17 -17 27 -114 66 l-38 15 53 58 c30 33 69 85 88 116 74 124 150 387
121 421 -14 17 -46 20 -55 6z"/>
<path d="M2954 1570 c-338 -88 -558 -413 -516 -760 22 -175 80 -298 197 -415
138 -138 291 -197 511 -196 216 0 378 58 507 179 l37 36 0 243 0 243 -145 0
-145 0 0 -185 0 -185 -32 -20 c-53 -32 -170 -53 -259 -47 -132 9 -249 80 -315
192 -64 111 -73 308 -17 427 52 112 127 179 244 218 53 19 79 21 154 17 107
-6 178 -30 253 -87 29 -22 57 -38 62 -35 7 4 120 164 143 201 8 14 -82 78
-172 123 -141 71 -350 92 -507 51z"/>
<path d="M4375 1584 c-168 -35 -276 -108 -332 -223 -26 -51 -28 -66 -28 -171
0 -103 3 -121 26 -171 48 -102 149 -172 324 -224 50 -15 128 -38 174 -51 134
-40 176 -77 176 -155 0 -80 -75 -134 -185 -132 -109 2 -216 46 -347 144 -29
21 -54 39 -56 39 -8 0 -167 -199 -167 -209 0 -18 132 -111 215 -152 113 -56
217 -80 346 -80 225 -1 390 83 466 239 26 52 28 66 28 167 0 118 -15 169 -70
241 -54 71 -185 135 -390 190 -193 52 -241 86 -239 170 2 82 64 124 182 124
104 0 213 -35 304 -98 l43 -30 70 101 c39 56 72 105 74 110 4 11 -20 29 -95
72 -120 69 -265 106 -407 104 -51 -1 -101 -3 -112 -5z"/>
<path d="M1140 1435 l0 -125 190 0 190 0 0 -550 0 -550 150 0 150 0 0 550 0
550 190 0 190 0 0 125 0 125 -530 0 -530 0 0 -125z"/>
</g>
</svg>
