<?xml version="1.0" standalone="no"?>
<!DOCTYPE svg PUBLIC "-//W3C//DTD SVG 20010904//EN"
 "http://www.w3.org/TR/2001/REC-SVG-20010904/DTD/svg10.dtd">
<svg version="1.0" xmlns="http://www.w3.org/2000/svg"
 width="1696.000000pt" height="567.000000pt" viewBox="0 0 1696.000000 567.000000"
 preserveAspectRatio="xMidYMid meet">

<g transform="translate(0.000000,567.000000) scale(0.100000,-0.100000)"
fill="#000000" stroke="none">
<path d="M2870 5179 c-271 -29 -537 -106 -775 -223 -254 -126 -443 -263 -638
-465 -531 -550 -749 -1329 -581 -2079 37 -164 94 -325 178 -497 308 -634 899
-1091 1588 -1229 336 -68 699 -58 1028 28 397 103 790 336 1075 638 136 144
152 183 96 239 -23 23 -38 29 -71 29 -38 0 -46 -5 -100 -63 -32 -34 -68 -75
-80 -89 -31 -40 -214 -195 -305 -259 -613 -431 -1427 -495 -2102 -164 -621
303 -1043 880 -1149 1570 -23 150 -23 451 0 600 85 543 361 1014 789 1346 371
287 801 433 1277 431 449 -1 841 -127 1211 -392 l87 -61 -6 -64 c-4 -56 -1
-72 22 -119 38 -78 126 -136 205 -136 84 0 179 58 217 132 28 54 30 136 4 196
-43 100 -134 151 -250 139 l-60 -7 -80 60 c-300 222 -650 368 -1020 425 -126
19 -442 27 -560 14z"/>
<path d="M8178 3915 c-359 -68 -636 -333 -725 -691 -25 -103 -22 -314 6 -419
43 -162 135 -319 252 -431 80 -76 137 -114 241 -164 132 -63 220 -83 378 -83
200 -1 346 42 506 148 277 185 437 528 396 852 -57 449 -416 782 -862 798 -76
3 -141 0 -192 -10z m312 -351 c167 -47 317 -188 375 -355 109 -307 -82 -653
-403 -729 -218 -51 -459 41 -585 226 -190 280 -103 648 193 811 128 71 274 87
420 47z"/>
<path d="M15243 3915 c-195 -35 -370 -129 -500 -269 -166 -177 -246 -380 -246
-621 0 -154 25 -264 93 -401 115 -232 332 -408 585 -476 113 -30 327 -30 437
0 184 50 312 126 441 262 279 295 326 726 116 1083 -59 101 -219 258 -322 316
-185 104 -403 143 -604 106z m307 -351 c143 -40 279 -152 344 -285 38 -77 66
-185 66 -254 0 -118 -63 -279 -145 -372 -175 -199 -478 -245 -706 -107 -117
70 -213 197 -253 333 -10 33 -16 92 -16 149 0 371 350 636 710 536z"/>
<path d="M2537 3048 c-180 -469 -330 -863 -334 -876 l-5 -22 208 2 209 3 55
147 55 148 319 0 c298 0 318 1 311 17 -3 10 -27 76 -52 148 -25 71 -49 138
-54 148 -9 15 -30 17 -214 17 -113 0 -205 1 -205 3 3 22 269 737 272 731 3 -5
113 -314 244 -686 l238 -678 209 0 209 0 -6 23 c-3 12 -153 405 -334 872
l-328 850 -234 3 -235 2 -328 -852z"/>
<path d="M5092 3028 l3 -873 185 0 185 0 3 296 2 297 268 4 c257 4 270 5 341
31 175 62 305 195 362 369 31 95 34 254 5 338 -69 203 -222 349 -417 395 -52
12 -145 15 -502 15 l-437 0 2 -872z m871 521 c74 -20 146 -106 161 -192 16
-85 -47 -201 -128 -238 -36 -16 -69 -19 -283 -19 l-243 0 0 230 0 230 228 0
c129 0 243 -5 265 -11z"/>
<path d="M10410 3025 l0 -875 555 0 555 0 0 165 0 165 -370 0 -370 0 0 710 0
710 -185 0 -185 0 0 -875z"/>
<path d="M12562 3028 l3 -873 555 0 555 0 3 163 2 162 -370 0 -370 0 0 710 0
710 -190 0 -190 0 2 -872z"/>
</g>
</svg>
