<?xml version="1.0" standalone="no"?>
<!DOCTYPE svg PUBLIC "-//W3C//DTD SVG 20010904//EN"
 "http://www.w3.org/TR/2001/REC-SVG-20010904/DTD/svg10.dtd">
<svg version="1.0" xmlns="http://www.w3.org/2000/svg"
 width="380.000000pt" height="380.000000pt" viewBox="0 0 380.000000 380.000000"
 preserveAspectRatio="xMidYMid meet">

<g transform="translate(0.000000,380.000000) scale(0.100000,-0.100000)"
fill="#c9606c" stroke="none">
<path d="M1707 3698 c-9 -7 -27 -38 -41 -68 -13 -30 -42 -93 -63 -140 -22 -47
-53 -114 -68 -148 -33 -73 -30 -73 -150 -27 -38 14 -92 35 -120 45 -27 10 -81
30 -120 45 -38 14 -81 30 -95 35 -14 4 -54 19 -90 33 -297 112 -456 166 -471
162 -9 -3 -20 -12 -23 -20 -6 -17 30 -48 269 -230 87 -66 205 -157 263 -203
111 -87 143 -102 167 -82 20 16 19 27 -2 44 -98 79 -284 223 -346 270 -44 31
-77 59 -75 62 5 5 44 -7 133 -41 39 -14 93 -35 120 -45 28 -10 82 -30 120 -45
39 -14 81 -30 95 -35 14 -4 57 -20 95 -35 211 -79 236 -87 248 -76 7 5 50 94
96 196 46 102 87 185 91 185 3 0 68 -92 144 -205 118 -175 141 -205 163 -205
16 0 85 46 205 136 99 74 182 134 184 132 1 -2 26 -55 54 -118 28 -63 57 -129
65 -145 7 -17 23 -51 33 -76 11 -26 25 -50 31 -53 6 -4 63 0 128 8 207 26 456
55 523 61 l65 6 -64 -58 c-35 -32 -83 -73 -107 -93 -150 -124 -214 -183 -214
-193 0 -18 21 -37 41 -37 10 0 68 44 130 98 61 53 133 115 159 137 206 173
211 178 208 199 -4 30 -37 31 -233 6 -313 -39 -480 -59 -532 -63 l-51 -4 -82
186 c-45 102 -88 196 -96 209 -21 32 -52 27 -114 -18 -66 -49 -201 -150 -269
-202 l-49 -38 -142 213 c-131 195 -171 247 -189 247 -4 0 -15 -6 -24 -12z"/>
<path d="M1535 2965 c-260 -30 -557 -124 -580 -183 -14 -36 37 -54 78 -27 28
18 175 77 247 98 153 46 278 60 510 61 194 0 241 -3 340 -23 505 -99 692 -294
637 -661 -19 -125 -52 -242 -139 -490 -83 -235 -100 -306 -138 -567 -38 -271
-46 -412 -31 -538 38 -297 164 -449 423 -506 151 -34 437 -18 641 36 l67 18 0
39 c0 36 -2 38 -20 28 -11 -6 -64 -22 -117 -37 -88 -24 -120 -27 -316 -31
-208 -3 -222 -3 -285 19 -181 62 -268 179 -303 409 -17 114 -6 335 31 585 35
239 56 317 168 645 83 240 112 371 112 502 0 156 -35 251 -129 351 -202 216
-699 329 -1196 272z"/>
<path d="M1198 2588 c-8 -7 -23 -44 -32 -83 -24 -99 -104 -259 -165 -326 -27
-31 -79 -76 -115 -99 -37 -24 -66 -50 -66 -57 0 -16 74 -50 140 -64 83 -18 85
1 -28 -298 -64 -171 -102 -285 -102 -308 1 -86 70 -172 180 -225 70 -33 185
-66 264 -77 46 -6 50 -8 59 -41 15 -58 2 -506 -17 -567 -35 -110 -129 -193
-274 -239 -82 -27 -97 -28 -267 -28 -160 1 -192 4 -285 27 -105 26 -213 61
-282 91 -49 21 -48 21 -48 -17 0 -40 6 -43 160 -94 400 -130 820 -88 993 101
93 103 110 176 111 476 1 204 -1 241 -17 282 -20 53 -15 50 -152 78 -207 42
-308 102 -334 196 -12 44 -15 34 105 357 57 152 104 281 104 286 0 10 -90 47
-137 56 -18 4 -33 10 -33 14 0 3 29 35 66 69 109 105 192 253 227 406 15 65
15 67 -6 81 -26 18 -29 18 -49 3z"/>
</g>
</svg>
